<mxfile host="app.diagrams.net" modified="2021-01-19T08:21:00.474Z" agent="5.0 (Macintosh; Intel Mac OS X 11_0_1) AppleWebKit/537.36 (KHTML, like Gecko) Chrome/87.0.4280.141 Safari/537.36" etag="QjKQcs_f3Tttoc8gd1cG" version="14.2.4" type="github">
  <diagram id="n4bqpxJSWs9qwXVAG9Ya" name="Page-1">
    <mxGraphModel dx="1178" dy="706" grid="1" gridSize="10" guides="1" tooltips="1" connect="1" arrows="1" fold="1" page="1" pageScale="1" pageWidth="827" pageHeight="1169" math="0" shadow="0">
      <root>
        <mxCell id="0" />
        <mxCell id="1" parent="0" />
        <mxCell id="DG4rs8WNzXxtl_6SsIYO-6" value="" style="edgeStyle=orthogonalEdgeStyle;rounded=0;orthogonalLoop=1;jettySize=auto;html=1;" parent="1" source="DG4rs8WNzXxtl_6SsIYO-1" target="DG4rs8WNzXxtl_6SsIYO-5" edge="1">
          <mxGeometry relative="1" as="geometry" />
        </mxCell>
        <mxCell id="DG4rs8WNzXxtl_6SsIYO-1" value="QI运营平台" style="rounded=1;whiteSpace=wrap;html=1;" parent="1" vertex="1">
          <mxGeometry x="300" y="525" width="120" height="60" as="geometry" />
        </mxCell>
        <mxCell id="DG4rs8WNzXxtl_6SsIYO-3" value="" style="edgeStyle=orthogonalEdgeStyle;rounded=0;orthogonalLoop=1;jettySize=auto;html=1;" parent="1" source="DG4rs8WNzXxtl_6SsIYO-2" target="DG4rs8WNzXxtl_6SsIYO-1" edge="1">
          <mxGeometry relative="1" as="geometry" />
        </mxCell>
        <mxCell id="DG4rs8WNzXxtl_6SsIYO-2" value="互金协会平台运营人员" style="shape=umlActor;verticalLabelPosition=bottom;verticalAlign=top;html=1;outlineConnect=0;" parent="1" vertex="1">
          <mxGeometry x="345" y="400" width="30" height="60" as="geometry" />
        </mxCell>
        <mxCell id="DG4rs8WNzXxtl_6SsIYO-4" value="互金协会ES计算集群" style="rounded=1;whiteSpace=wrap;html=1;" parent="1" vertex="1">
          <mxGeometry x="275" y="770" width="170" height="60" as="geometry" />
        </mxCell>
        <mxCell id="DG4rs8WNzXxtl_6SsIYO-7" value="" style="edgeStyle=orthogonalEdgeStyle;rounded=0;orthogonalLoop=1;jettySize=auto;html=1;" parent="1" source="DG4rs8WNzXxtl_6SsIYO-5" target="DG4rs8WNzXxtl_6SsIYO-4" edge="1">
          <mxGeometry relative="1" as="geometry" />
        </mxCell>
        <mxCell id="DG4rs8WNzXxtl_6SsIYO-5" value="互金协会TM" style="rounded=1;whiteSpace=wrap;html=1;" parent="1" vertex="1">
          <mxGeometry x="300" y="660" width="120" height="60" as="geometry" />
        </mxCell>
        <mxCell id="DG4rs8WNzXxtl_6SsIYO-8" value="陆金所DS SDK" style="rounded=1;whiteSpace=wrap;html=1;" parent="1" vertex="1">
          <mxGeometry x="580" y="770" width="120" height="60" as="geometry" />
        </mxCell>
        <mxCell id="DG4rs8WNzXxtl_6SsIYO-9" value="" style="curved=1;endArrow=classic;html=1;exitX=0.5;exitY=0;exitDx=0;exitDy=0;entryX=1;entryY=0.5;entryDx=0;entryDy=0;" parent="1" source="DG4rs8WNzXxtl_6SsIYO-8" target="DG4rs8WNzXxtl_6SsIYO-5" edge="1">
          <mxGeometry width="50" height="50" relative="1" as="geometry">
            <mxPoint x="470" y="730" as="sourcePoint" />
            <mxPoint x="520" y="680" as="targetPoint" />
            <Array as="points">
              <mxPoint x="580" y="730" />
              <mxPoint x="470" y="690" />
            </Array>
          </mxGeometry>
        </mxCell>
        <mxCell id="DG4rs8WNzXxtl_6SsIYO-10" value="2、提交任务；&lt;br&gt;3、单向数据传输；&lt;br&gt;4、获取结果；" style="edgeLabel;html=1;align=center;verticalAlign=middle;resizable=0;points=[];" parent="DG4rs8WNzXxtl_6SsIYO-9" vertex="1" connectable="0">
          <mxGeometry x="-0.0905" y="-3" relative="1" as="geometry">
            <mxPoint as="offset" />
          </mxGeometry>
        </mxCell>
        <mxCell id="DG4rs8WNzXxtl_6SsIYO-11" value="" style="curved=1;endArrow=classic;html=1;entryX=1;entryY=0.5;entryDx=0;entryDy=0;fillColor=#fa6800;strokeColor=#C73500;" parent="1" target="DG4rs8WNzXxtl_6SsIYO-1" edge="1">
          <mxGeometry width="50" height="50" relative="1" as="geometry">
            <mxPoint x="640" y="770" as="sourcePoint" />
            <mxPoint x="520" y="670" as="targetPoint" />
            <Array as="points">
              <mxPoint x="630" y="660" />
            </Array>
          </mxGeometry>
        </mxCell>
        <mxCell id="DG4rs8WNzXxtl_6SsIYO-12" value="1、订单创建通知；&lt;br&gt;5、订单完成通知；" style="edgeLabel;html=1;align=center;verticalAlign=middle;resizable=0;points=[];fontColor=#EA6B66;" parent="DG4rs8WNzXxtl_6SsIYO-11" vertex="1" connectable="0">
          <mxGeometry x="-0.1314" y="2" relative="1" as="geometry">
            <mxPoint as="offset" />
          </mxGeometry>
        </mxCell>
      </root>
    </mxGraphModel>
  </diagram>
</mxfile>
